<?xml version="1.0" encoding="UTF-8"?><svg id="Layer_2" xmlns="http://www.w3.org/2000/svg" xmlns:xlink="http://www.w3.org/1999/xlink" viewBox="0 0 4038.18 689.87"><defs><style>.cls-1{fill:#2e305c;}.cls-2{fill:url(#linear-gradient);stroke:url(#linear-gradient-2);stroke-miterlimit:10;stroke-width:21px;}</style><linearGradient id="linear-gradient" x1="3327.68" y1="344.94" x2="4027.68" y2="344.94" gradientUnits="userSpaceOnUse"><stop offset=".66" stop-color="#2e305c"/><stop offset=".66" stop-color="#3b3d66" stop-opacity=".93"/><stop offset=".66" stop-color="#787995" stop-opacity=".65"/><stop offset=".66" stop-color="#aaaabc" stop-opacity=".41"/><stop offset=".66" stop-color="#d0d0da" stop-opacity=".22"/><stop offset=".66" stop-color="#ebebef" stop-opacity=".09"/><stop offset=".66" stop-color="#fafafb" stop-opacity=".02"/><stop offset=".66" stop-color="#fff" stop-opacity="0"/></linearGradient><linearGradient id="linear-gradient-2" x1="3317.18" y1="344.94" x2="4038.18" y2="344.94" gradientUnits="userSpaceOnUse"><stop offset="1" stop-color="#2e305c"/><stop offset="1" stop-color="#30325e"/><stop offset="1" stop-color="#393b65"/><stop offset="1" stop-color="#494b71"/><stop offset="1" stop-color="#5f6082"/><stop offset="1" stop-color="#7b7c98"/><stop offset="1" stop-color="#9e9fb3"/><stop offset="1" stop-color="#c7c8d3"/><stop offset="1" stop-color="#f6f6f8"/><stop offset="1" stop-color="#fff"/></linearGradient></defs><g id="Layer_2-2"><path class="cls-1" d="m378.65,28.31l83.4,168.99c4.65,9.43,13.65,15.97,24.06,17.48l186.5,27.1c26.21,3.81,36.67,36.01,17.71,54.5l-134.95,131.54c-7.53,7.34-10.97,17.92-9.19,28.28l31.86,185.74c4.48,26.1-22.92,46.01-46.36,33.68l-166.81-87.7c-9.31-4.89-20.43-4.89-29.74,0l-166.81,87.7c-23.44,12.32-50.84-7.58-46.36-33.68l31.86-185.74c1.78-10.36-1.66-20.94-9.19-28.28L9.68,296.38c-18.96-18.48-8.5-50.69,17.71-54.5l186.5-27.1c10.41-1.51,19.4-8.05,24.06-17.48L321.35,28.31c11.72-23.75,45.58-23.75,57.3,0Z"/><path class="cls-1" d="m1210.57,28.31l83.4,168.99c4.65,9.43,13.65,15.97,24.06,17.48l186.5,27.1c26.21,3.81,36.67,36.01,17.71,54.5l-134.95,131.54c-7.53,7.34-10.97,17.92-9.19,28.28l31.86,185.74c4.48,26.1-22.92,46.01-46.36,33.68l-166.81-87.7c-9.31-4.89-20.43-4.89-29.74,0l-166.81,87.7c-23.44,12.32-50.84-7.58-46.36-33.68l31.86-185.74c1.78-10.36-1.66-20.94-9.19-28.28l-134.95-131.54c-18.96-18.48-8.5-50.69,17.71-54.5l186.5-27.1c10.41-1.51,19.4-8.05,24.06-17.48l83.4-168.99c11.72-23.75,45.58-23.75,57.3,0Z"/><path class="cls-1" d="m2042.49,28.31l83.4,168.99c4.65,9.43,13.65,15.97,24.06,17.48l186.5,27.1c26.21,3.81,36.67,36.01,17.71,54.5l-134.95,131.54c-7.53,7.34-10.97,17.92-9.19,28.28l31.86,185.74c4.48,26.1-22.92,46.01-46.36,33.68l-166.81-87.7c-9.31-4.89-20.43-4.89-29.74,0l-166.81,87.7c-23.44,12.32-50.84-7.58-46.36-33.68l31.86-185.74c1.78-10.36-1.66-20.94-9.19-28.28l-134.95-131.54c-18.96-18.49-8.5-50.69,17.71-54.5l186.5-27.1c10.41-1.51,19.4-8.05,24.06-17.48l83.4-168.99c11.72-23.75,45.58-23.75,57.3,0Z"/><path class="cls-1" d="m2874.41,28.31l83.4,168.99c4.65,9.43,13.65,15.97,24.06,17.48l186.5,27.1c26.21,3.81,36.67,36.01,17.71,54.5l-134.95,131.54c-7.53,7.34-10.97,17.92-9.19,28.28l31.86,185.74c4.48,26.1-22.92,46.01-46.36,33.68l-166.81-87.7c-9.31-4.89-20.43-4.89-29.74,0l-166.81,87.7c-23.44,12.32-50.84-7.58-46.36-33.68l31.86-185.74c1.78-10.36-1.66-20.94-9.19-28.28l-134.95-131.54c-18.96-18.49-8.5-50.69,17.71-54.5l186.5-27.1c10.41-1.51,19.4-8.05,24.06-17.48l83.4-168.99c11.72-23.75,45.58-23.75,57.3,0Z"/><path class="cls-2" d="m3706.33,28.31l83.4,168.99c4.65,9.43,13.65,15.97,24.06,17.48l186.5,27.1c26.21,3.81,36.67,36.01,17.71,54.5l-134.95,131.54c-7.53,7.34-10.97,17.92-9.19,28.28l31.86,185.74c4.48,26.1-22.92,46.01-46.36,33.68l-166.81-87.7c-9.31-4.89-20.43-4.89-29.74,0l-166.81,87.7c-23.44,12.32-50.84-7.58-46.36-33.68l31.86-185.74c1.78-10.36-1.66-20.94-9.19-28.28l-134.95-131.54c-18.96-18.49-8.5-50.69,17.71-54.5l186.5-27.1c10.41-1.51,19.4-8.05,24.06-17.48l83.4-168.99c11.72-23.75,45.58-23.75,57.3,0Z"/></g></svg>